HIERARCHY
ROOT Hips
{
	OFFSET 0.00000 0.00000 0.00000
	CHANNELS 6 Xposition Yposition Zposition Zrotation Yrotation Xrotation 
	JOINT LHipJoint
	{
		OFFSET 0 0 0
		CHANNELS 3 Zrotation Yrotation Xrotation
		JOINT LeftUpLeg
		{
			OFFSET 1.58161 -1.81893 0.78828
			CHANNELS 3 Zrotation Yrotation Xrotation
			JOINT LeftLeg
			{
				OFFSET 2.53374 -6.96141 0.00000
				CHANNELS 3 Zrotation Yrotation Xrotation
				JOINT LeftFoot
				{
					OFFSET 2.63509 -7.23986 0.00000
					CHANNELS 3 Zrotation Yrotation Xrotation
					JOINT LeftToeBase
					{
						OFFSET 0.14115 -0.38781 2.05350
						CHANNELS 3 Zrotation Yrotation Xrotation
						End Site
						{
							OFFSET 0.00000 -0.00000 1.05543
						}
					}
				}
			}
		}
	}
	JOINT RHipJoint
	{
		OFFSET 0 0 0
		CHANNELS 3 Zrotation Yrotation Xrotation
		JOINT RightUpLeg
		{
			OFFSET -1.11138 -1.81893 0.78828
			CHANNELS 3 Zrotation Yrotation Xrotation
			JOINT RightLeg
			{
				OFFSET -2.58392 -7.09926 0.00000
				CHANNELS 3 Zrotation Yrotation Xrotation
				JOINT RightFoot
				{
					OFFSET -2.66423 -7.31992 0.00000
					CHANNELS 3 Zrotation Yrotation Xrotation
					JOINT RightToeBase
					{
						OFFSET -0.18831 -0.51739 2.12114
						CHANNELS 3 Zrotation Yrotation Xrotation
						End Site
						{
							OFFSET -0.00000 -0.00000 1.09845
						}
					}
				}
			}
		}
	}
	JOINT LowerBack
	{
		OFFSET 0 0 0
		CHANNELS 3 Zrotation Yrotation Xrotation
		JOINT Spine
		{
			OFFSET -0.01511 1.97958 -0.08829
			CHANNELS 3 Zrotation Yrotation Xrotation
			JOINT Spine1
			{
				OFFSET 0.08344 1.97334 -0.04330
				CHANNELS 3 Zrotation Yrotation Xrotation
				JOINT Neck
				{
					OFFSET 0 0 0
					CHANNELS 3 Zrotation Yrotation Xrotation
					JOINT Neck1
					{
						OFFSET 0.00559 1.76246 0.31246
						CHANNELS 3 Zrotation Yrotation Xrotation
						JOINT Head
						{
							OFFSET -0.07011 1.80354 -0.30524
							CHANNELS 3 Zrotation Yrotation Xrotation
							End Site
							{
								OFFSET -0.02385 1.83547 -0.13906
							}
						}
					}
				}
				JOINT LeftShoulder
				{
					OFFSET 0 0 0
					CHANNELS 3 Zrotation Yrotation Xrotation
					JOINT LeftArm
					{
						OFFSET 3.20667 1.30156 -0.60240
						CHANNELS 3 Zrotation Yrotation Xrotation
						JOINT LeftForeArm
						{
							OFFSET 4.95663 -0.00000 0.00000
							CHANNELS 3 Zrotation Yrotation Xrotation
							JOINT LeftHand
							{
								OFFSET 3.38177 -0.00000 0.00000
								CHANNELS 3 Zrotation Yrotation Xrotation
								JOINT LeftFingerBase
								{
									OFFSET 0 0 0
									CHANNELS 3 Zrotation Yrotation Xrotation
									JOINT LeftHandIndex1
									{
										OFFSET 0.66291 -0.00000 0.00000
										CHANNELS 3 Zrotation Yrotation Xrotation
										End Site
										{
											OFFSET 0.53445 -0.00000 0.00000
										}
									}
								}
								JOINT LThumb
								{
									OFFSET 0 0 0
									CHANNELS 3 Zrotation Yrotation Xrotation
									End Site
									{
										OFFSET 0.54261 -0.00000 0.54261
									}
								}
							}
						}
					}
				}
				JOINT RightShoulder
				{
					OFFSET 0 0 0
					CHANNELS 3 Zrotation Yrotation Xrotation
					JOINT RightArm
					{
						OFFSET -3.06877 1.34672 -0.60964
						CHANNELS 3 Zrotation Yrotation Xrotation
						JOINT RightForeArm
						{
							OFFSET -5.08365 -0.00000 0.00000
							CHANNELS 3 Zrotation Yrotation Xrotation
							JOINT RightHand
							{
								OFFSET -3.35984 -0.00000 0.00000
								CHANNELS 3 Zrotation Yrotation Xrotation
								JOINT RightFingerBase
								{
									OFFSET 0 0 0
									CHANNELS 3 Zrotation Yrotation Xrotation
									JOINT RightHandIndex1
									{
										OFFSET -0.82076 -0.00000 0.00000
										CHANNELS 3 Zrotation Yrotation Xrotation
										End Site
										{
											OFFSET -0.66172 -0.00000 0.00000
										}
									}
								}
								JOINT RThumb
								{
									OFFSET 0 0 0
									CHANNELS 3 Zrotation Yrotation Xrotation
									End Site
									{
										OFFSET -0.67182 -0.00000 0.67182
									}
								}
							}
						}
					}
				}
			}
		}
	}
}
MOTION
Frames: 14
Frame Time: .0083333
1.8981 16.3380 -4.0363 3.0857 -1.7117 40.7933 0.0000 0.0000 0.0000 -12.3167 -15.7561 -82.8644 6.5940 14.9802 47.3215 -1.4356 -21.1647 2.9263 0.0001 0.0703 0.1932 0.0000 0.0000 0.0000 11.0911 -0.9771 -80.7768 -10.6319 -17.7502 61.5804 -1.0837 6.9414 -18.5860 -0.0490 1.4280 -3.9272 3.8437 8.0367 42.7327 7.5507 11.0443 17.2085 2.0302 4.9412 -1.6312 -4.8584 -9.4233 -11.8264 -7.3450 -11.4296 4.8547 -2.3727 -6.1139 3.5191 -0.0000 0.0000 0.0000 -63.3526 -32.3331 77.4063 81.9440 -59.7533 -53.0291 -0.0000 -0.0000 24.9302 49.9929 10.7235 12.4999 -7.1250 0.0000 -0.0000 21.5420 45.2288 0.1277 -0.0000 0.0000 0.0000 -11.1031 59.8949 -48.8761 -12.3222 20.2861 -2.2127 0.0000 0.0000 2.6982 -41.1367 20.9372 -17.3350 7.1250 -0.0000 -0.0000 -7.7333 -3.2599 -7.3493
1.9668 16.4286 -3.8449 1.7070 -4.7550 39.5825 0.0000 0.0000 0.0000 -13.0529 -12.9898 -81.1037 6.7247 15.0956 47.8253 -1.2802 -20.5474 0.9013 0.0004 -0.1347 -0.3701 0.0000 0.0000 0.0000 10.9979 0.7039 -77.8758 -10.1247 -17.4794 59.9045 -1.0025 8.1575 -17.9408 -0.0375 1.2504 -3.4381 2.5478 9.6535 44.5440 7.2299 12.2941 17.7026 1.7689 5.4205 -1.7271 -4.7284 -9.5105 -11.7781 -7.4780 -11.5828 4.6884 -2.4341 -6.1889 3.4307 -0.0000 -0.0000 0.0000 -63.2635 -32.1939 77.3443 82.6855 -59.7969 -53.6698 -0.0000 -0.0000 25.2284 50.4948 11.0252 13.0589 -7.1250 0.0000 -0.0000 22.1584 45.7557 0.4348 -0.0000 -0.0000 0.0000 -12.2303 59.6384 -50.8507 -12.2530 20.1830 -2.1888 0.0000 0.0000 3.5966 -41.1236 21.1743 -17.5033 7.1250 -0.0000 -0.0000 -7.6753 -2.9774 -7.3333
2.0233 16.4859 -3.6406 0.5583 -8.0061 39.1629 0.0000 0.0000 0.0000 -13.8925 -10.4162 -80.1679 6.8515 15.2056 48.3106 -1.1089 -19.8359 -0.9378 0.0018 -0.2730 -0.7502 0.0000 0.0000 0.0000 10.5376 2.5161 -75.8824 -9.6370 -17.2006 58.2682 -0.8861 9.5074 -17.0824 -0.0124 0.7196 -1.9775 0.7164 11.5053 45.3934 6.8586 13.5524 18.1179 1.7264 5.8929 -1.7298 -4.6931 -9.5745 -11.7285 -7.4816 -11.6962 4.5267 -2.4355 -6.2406 3.3587 -0.0000 0.0000 0.0000 -63.0644 -32.0893 77.2749 83.2515 -59.8272 -54.1590 -0.0000 -0.0000 25.4532 50.5131 10.9414 12.9722 -7.1250 0.0000 -0.0000 22.1463 45.6416 0.3690 -0.0000 0.0000 0.0000 -13.3092 59.3784 -52.5429 -12.1564 20.0387 -2.1556 0.0000 0.0000 4.4055 -41.3752 21.4153 -17.8288 7.1250 -0.0000 -0.0000 -7.7745 -2.6053 -7.4832
2.0723 16.5392 -3.3977 -0.6411 -11.9740 39.2402 0.0000 0.0000 0.0000 -14.8919 -7.6693 -79.5070 6.9614 15.2993 48.7282 -0.8669 -18.7446 -3.1387 0.0094 -0.6256 -1.7192 0.0000 0.0000 0.0000 9.7719 4.7021 -74.3434 -9.2325 -16.9550 56.8908 -0.7778 10.9574 -16.4169 -0.0088 0.6055 -1.6639 -1.9522 13.8916 45.5279 6.4352 15.0781 18.5229 1.9165 6.4523 -1.7177 -4.7799 -9.6673 -11.4316 -7.3287 -11.8822 4.0829 -2.3380 -6.3132 3.1560 -0.0000 0.0000 0.0000 -62.9230 -32.0405 77.3218 83.8640 -59.8573 -54.6887 -0.0000 -0.0000 25.6352 50.5022 10.9402 12.9661 -7.1250 0.0000 -0.0000 22.1347 45.6377 0.3665 -0.0000 0.0000 0.0000 -14.4275 59.1095 -54.1687 -12.0164 19.8293 -2.1079 0.0000 0.0000 5.2511 -42.1543 21.5529 -18.3955 7.1250 -0.0000 -0.0000 -8.2088 -2.1812 -7.9736
2.0968 16.5256 -3.3491 -0.5553 -12.1468 39.5358 0.0000 0.0000 0.0000 -15.3631 -7.5844 -79.9241 7.0541 15.3773 49.0785 -0.8812 -19.0120 -3.3748 0.0057 -0.4886 -1.3426 0.0000 0.0000 0.0000 9.6470 4.5730 -74.4322 -9.0845 -16.8618 56.3819 -0.7525 10.8809 -16.1703 -0.0231 0.9809 -2.6962 -2.1169 14.0697 45.7330 6.4832 15.1957 18.5650 1.9746 6.4874 -1.7653 -4.8016 -9.7689 -11.2138 -7.2895 -12.0698 3.7365 -2.2987 -6.3937 2.9930 -0.0000 0.0000 0.0000 -62.8905 -31.9925 77.3849 84.4308 -59.8825 -55.1788 -0.0000 -0.0000 25.9473 51.3740 11.3889 13.8816 -7.1250 0.0000 -0.0000 23.2051 46.4600 0.8830 -0.0000 0.0000 0.0000 -15.4686 58.8140 -55.5931 -11.8952 19.6473 -2.0669 0.0000 0.0000 5.9187 -42.6014 21.5195 -18.6404 7.1250 -0.0000 -0.0000 -8.4815 -2.0705 -8.2615
2.1234 16.5073 -3.3091 -0.4178 -12.1454 39.8942 0.0000 0.0000 0.0000 -15.7291 -7.7064 -80.4208 7.1418 15.4501 49.4086 -0.9006 -19.2199 -3.4214 0.0014 -0.2409 -0.6618 0.0000 0.0000 0.0000 9.4631 4.3613 -74.7381 -9.0237 -16.8230 56.1721 -0.7312 10.8831 -15.9780 -0.0321 1.1557 -3.1772 -2.1055 14.0289 45.7730 6.4397 15.1368 18.6305 1.9558 6.4620 -1.6820 -4.7265 -9.7797 -11.1085 -7.2608 -12.1360 3.4259 -2.2807 -6.4163 2.8602 0.0000 0.0000 0.0000 -62.5997 -31.9063 77.1779 84.9872 -59.9048 -55.6602 -0.0000 -0.0000 26.2230 52.1120 11.4477 14.3088 -7.1250 0.0000 -0.0000 24.0037 46.7119 1.0747 0.0000 0.0000 0.0000 -16.4463 58.6680 -57.1073 -11.7852 19.4818 -2.0301 0.0000 0.0000 6.6973 -42.3448 21.2087 -18.2473 7.1250 -0.0000 -0.0000 -8.3976 -2.5364 -8.1064
2.1451 16.4927 -3.2636 -0.4971 -11.9811 40.2891 0.0000 0.0000 0.0000 -15.8397 -7.7281 -80.9252 7.2221 15.5161 49.7093 -0.9371 -19.5074 -3.3405 0.0002 -0.0836 -0.2298 0.0000 0.0000 0.0000 9.5207 4.2395 -75.0920 -9.0576 -16.8447 56.2892 -0.7341 10.9936 -16.0333 -0.0340 1.1902 -3.2723 -1.9552 13.9904 45.7559 6.4900 15.1426 18.7055 1.9491 6.4675 -1.5818 -4.6876 -9.7939 -10.9865 -7.1765 -12.2069 3.0929 -2.2372 -6.4390 2.7231 -0.0000 -0.0000 0.0000 -62.2975 -31.8698 77.0690 85.5487 -59.9250 -56.1461 -0.0000 -0.0000 26.3039 52.4360 11.4089 14.4236 -7.1250 0.0000 -0.0000 24.3290 46.7320 1.1038 -0.0000 -0.0000 0.0000 -17.3077 58.4749 -58.1909 -11.7156 19.3767 -2.0069 0.0000 0.0000 6.9936 -42.3252 20.9215 -18.0152 7.1250 -0.0000 -0.0000 -8.4487 -2.8937 -8.1013
2.1635 16.4782 -3.2128 -0.7833 -11.7090 40.6946 0.0000 0.0000 0.0000 -15.6243 -7.7229 -81.3864 7.3015 15.5806 50.0055 -0.9626 -19.7022 -3.2770 0.0002 0.0808 0.2220 0.0000 0.0000 0.0000 9.8982 4.1660 -75.3622 -9.0889 -16.8646 56.3971 -0.7614 10.9547 -16.2696 -0.0838 1.8676 -5.1398 -1.6716 13.9739 45.8352 6.5974 15.2245 18.7182 1.8928 6.5071 -1.5698 -4.6743 -9.8203 -10.9136 -7.1498 -12.2734 2.8764 -2.2178 -6.4654 2.6341 0.0000 -0.0000 0.0000 -62.1001 -31.8190 77.0837 86.1398 -59.9436 -56.6576 -0.0000 -0.0000 26.3554 52.5744 11.6790 14.8166 -7.1250 0.0000 -0.0000 24.5965 47.1516 1.3871 0.0000 -0.0000 0.0000 -17.9585 58.2056 -58.6875 -11.6940 19.3442 -1.9998 0.0000 0.0000 6.6894 -43.0179 21.1316 -18.5926 7.1250 -0.0000 -0.0000 -8.8149 -2.4027 -8.5406
2.1786 16.4638 -3.1846 -0.8432 -11.2305 40.9757 0.0000 0.0000 0.0000 -15.5002 -7.9280 -81.7856 7.3747 15.6395 50.2778 -1.0103 -19.9890 -3.0324 0.0062 0.5067 1.3923 0.0000 0.0000 0.0000 10.2231 3.8712 -75.6552 -9.1343 -16.8934 56.5535 -0.8001 10.6870 -16.5507 -0.2072 2.9308 -8.0860 -1.3189 13.8349 46.0501 6.7420 15.2021 18.6983 1.8696 6.4998 -1.6187 -4.6330 -9.8451 -10.7279 -7.1855 -12.3520 2.6091 -2.2125 -6.4957 2.5010 0.0000 0.0000 0.0000 -61.8867 -31.7560 77.1016 86.8729 -59.9630 -57.2922 -0.0000 -0.0000 26.4117 52.4857 11.7517 14.8578 -7.1250 0.0000 -0.0000 24.5340 47.2341 1.4359 0.0000 0.0000 0.0000 -18.5099 57.9454 -59.1348 -11.6860 19.3321 -1.9971 0.0000 0.0000 6.5321 -44.1348 21.8177 -19.8291 7.1250 -0.0000 -0.0000 -9.3177 -1.1629 -9.2506
2.1960 16.4542 -3.1596 -0.6994 -10.9080 41.1859 0.0000 0.0000 0.0000 -15.7154 -8.1146 -82.1230 7.4408 15.6921 50.5225 -1.0658 -20.3803 -2.8694 0.0146 0.7800 2.1437 0.0000 0.0000 0.0000 10.2153 3.5674 -75.9503 -9.1932 -16.9304 56.7557 -0.8293 10.4869 -16.7650 -0.2927 3.4790 -9.6152 -1.1477 13.7205 46.2309 6.8420 15.1387 18.7066 1.9052 6.4695 -1.6454 -4.6741 -9.9217 -10.4730 -7.0940 -12.5034 2.2945 -2.1504 -6.5566 2.3517 -0.0000 -0.0000 0.0000 -61.7296 -31.6984 77.1506 87.4658 -59.9757 -57.8055 -0.0000 -0.0000 26.4930 52.6334 11.6254 14.7825 -7.1250 0.0000 -0.0000 24.6354 47.0890 1.3493 -0.0000 -0.0000 0.0000 -18.9402 57.7022 -59.4615 -11.7072 19.3640 -2.0041 0.0000 0.0000 6.5455 -44.4822 21.8791 -20.1013 7.1250 -0.0000 -0.0000 -9.5067 -0.9590 -9.4783
2.2145 16.4384 -3.1373 -0.5911 -10.4666 41.5176 0.0000 0.0000 0.0000 -15.7665 -8.4155 -82.5843 7.5050 15.7428 50.7595 -1.1216 -20.6757 -2.5332 0.0205 0.9253 2.5432 0.0000 0.0000 0.0000 10.2243 3.2944 -76.4029 -9.2719 -16.9795 57.0257 -0.8581 10.2885 -16.9777 -0.3126 3.5941 -9.9375 -0.8370 13.5143 46.1898 6.9304 15.0370 18.7228 1.9042 6.4360 -1.5835 -4.6979 -9.9805 -10.3236 -6.9933 -12.6135 2.1068 -2.1002 -6.6016 2.2663 0.0000 0.0000 0.0000 -61.6477 -31.6252 77.1499 87.7742 -59.9813 -58.0726 -0.0000 -0.0000 26.5966 52.8261 11.4493 14.6688 -7.1250 0.0000 -0.0000 24.7612 46.8823 1.2233 0.0000 0.0000 0.0000 -19.2455 57.4400 -59.5987 -11.7171 19.3790 -2.0074 0.0000 0.0000 6.5521 -43.9300 21.2311 -19.2313 7.1250 -0.0000 -0.0000 -9.3324 -1.9612 -9.1307
2.2321 16.4169 -3.1182 -0.5412 -9.9058 41.9846 0.0000 0.0000 0.0000 -15.6196 -8.8258 -83.1830 7.5650 15.7897 50.9801 -1.1732 -20.8971 -2.1226 0.0294 1.1061 3.0409 0.0000 0.0000 0.0000 10.3507 3.0274 -76.9951 -9.3480 -17.0265 57.2861 -0.8879 10.1130 -17.2049 -0.2966 3.5019 -9.6795 -0.4398 13.2062 46.0290 6.9774 14.8600 18.6921 1.8585 6.3773 -1.5162 -4.5730 -9.9392 -10.3301 -7.0485 -12.5764 2.0734 -2.1336 -6.5833 2.2451 0.0000 0.0000 0.0000 -61.4486 -31.5156 77.0437 88.0781 -59.9860 -58.3357 -0.0000 -0.0000 26.5452 52.8837 11.5101 14.7718 -7.1250 0.0000 -0.0000 24.8504 46.9836 1.2941 0.0000 0.0000 0.0000 -19.5719 57.3173 -59.8603 -11.6992 19.3520 -2.0015 0.0000 0.0000 6.6061 -43.6392 20.9395 -18.8190 7.1250 -0.0000 -0.0000 -9.2267 -2.4243 -8.9463
2.2488 16.4031 -3.1021 -0.4511 -9.4065 42.3374 0.0000 0.0000 0.0000 -15.5410 -9.2024 -83.6432 7.6167 15.8299 51.1699 -1.2139 -21.1445 -1.9548 0.0339 1.1887 3.2682 0.0000 0.0000 0.0000 10.4332 2.7527 -77.4540 -9.4147 -17.0673 57.5134 -0.9117 9.9578 -17.3832 -0.2774 3.3876 -9.3599 -0.1137 12.9497 45.9039 7.0445 14.7098 18.7004 1.8538 6.3258 -1.4322 -4.4015 -9.9159 -10.2463 -7.1042 -12.5890 1.9092 -2.1636 -6.5848 2.1592 0.0000 0.0000 0.0000 -61.3019 -31.5107 77.0712 88.5045 -59.9915 -58.7049 -0.0000 -0.0000 26.5418 53.0660 11.9489 15.3981 -7.1250 0.0000 -0.0000 25.2514 47.6589 1.7637 0.0000 0.0000 0.0000 -19.8375 57.1848 -60.1036 -11.7225 19.3872 -2.0092 0.0000 0.0000 6.7886 -43.6970 20.7958 -18.7393 7.1250 -0.0000 -0.0000 -9.2933 -2.5821 -8.9857
2.2634 16.4034 -3.0746 -0.3953 -9.2095 42.4506 0.0000 0.0000 0.0000 -15.6670 -9.2829 -83.7637 7.6580 15.8619 51.3213 -1.2497 -21.3737 -1.8398 0.0476 1.4079 3.8719 0.0000 0.0000 0.0000 10.4404 2.5638 -77.5521 -9.4562 -17.0925 57.6548 -0.9288 9.9310 -17.5266 -0.2970 3.5044 -9.6865 0.0003 12.9390 46.0279 7.1497 14.7392 18.7568 1.8932 6.3362 -1.4072 -4.2768 -9.9733 -10.1319 -7.1252 -12.7133 1.7004 -2.1762 -6.6400 2.0556 0.0000 -0.0000 0.0000 -61.3070 -31.6369 77.1956 88.8903 -59.9953 -59.0390 -0.0000 -0.0000 26.7163 53.1057 12.1431 15.6541 -7.1250 0.0000 -0.0000 25.3870 47.9473 1.9656 0.0000 -0.0000 0.0000 -19.9389 56.8928 -60.0897 -11.7891 19.4875 -2.0314 0.0000 0.0000 7.1230 -44.1312 20.7785 -18.9913 7.1250 -0.0000 -0.0000 -9.5546 -2.4510 -9.2686
